<?xml version="1.0" encoding="UTF-8"?>
<svg xmlns="http://www.w3.org/2000/svg" viewBox="0 0 1000 360" role="img" aria-label="oboroge0/AITuberFlow release downloads chart">
  <defs>
    <linearGradient id="fill-total-trend-slate" x1="0" y1="0" x2="0" y2="1">
      <stop offset="0%" stop-color="#60a5fa" stop-opacity="0.32"/>
      <stop offset="100%" stop-color="#60a5fa" stop-opacity="0.05"/>
    </linearGradient>
    <style>
      .bg { fill: #0f172a; }
      .title { font: 700 24px Arial, sans-serif; fill: #e2e8f0; }
      .sub { font: 400 13px Arial, sans-serif; fill: #94a3b8; }
      .grid { stroke: #1e293b; stroke-width: 1; }
      .axis { font: 400 12px Arial, sans-serif; fill: #94a3b8; }
      .line { fill: none; stroke: #60a5fa; stroke-width: 3; stroke-linecap: round; stroke-linejoin: round; }
      .dot { fill: #60a5fa; }
      .value { font: 600 11px Arial, sans-serif; fill: #cbd5e1; }
      .latest { font: 700 14px Arial, sans-serif; fill: #e2e8f0; }
    </style>
  </defs>
  <rect class="bg" x="0" y="0" width="1000" height="360" rx="16" />
  <text class="title" x="64" y="34">oboroge0/AITuberFlow release downloads</text>
  <text class="sub" x="64" y="352">Generated 2026-09-27</text>
  <line x1="64" y1="52.00" x2="976" y2="52.00" class="grid"/>
  <text x="56" y="56.00" text-anchor="end" class="axis">711</text>
  <line x1="64" y1="94.00" x2="976" y2="94.00" class="grid"/>
  <text x="56" y="98.00" text-anchor="end" class="axis">593</text>
  <line x1="64" y1="136.00" x2="976" y2="136.00" class="grid"/>
  <text x="56" y="140.00" text-anchor="end" class="axis">474</text>
  <line x1="64" y1="178.00" x2="976" y2="178.00" class="grid"/>
  <text x="56" y="182.00" text-anchor="end" class="axis">356</text>
  <line x1="64" y1="220.00" x2="976" y2="220.00" class="grid"/>
  <text x="56" y="224.00" text-anchor="end" class="axis">237</text>
  <line x1="64" y1="262.00" x2="976" y2="262.00" class="grid"/>
  <text x="56" y="266.00" text-anchor="end" class="axis">119</text>
  <line x1="64" y1="304.00" x2="976" y2="304.00" class="grid"/>
  <text x="56" y="308.00" text-anchor="end" class="axis">0</text>
  <path d="M 64.00 304 L 64.00 166.84 L 71.24 166.84 L 78.48 166.13 L 85.71 166.13 L 92.95 166.13 L 100.19 164.35 L 107.43 153.01 L 114.67 153.01 L 121.90 152.66 L 129.14 151.59 L 136.38 151.59 L 143.62 151.59 L 150.86 149.82 L 158.10 149.11 L 165.33 146.99 L 172.57 146.28 L 179.81 145.22 L 187.05 143.44 L 194.29 143.09 L 201.52 143.09 L 208.76 143.09 L 216.00 143.09 L 223.24 142.73 L 230.48 142.73 L 237.71 142.03 L 244.95 139.90 L 252.19 139.90 L 259.43 139.90 L 266.67 139.19 L 273.90 139.19 L 281.14 139.19 L 288.38 139.19 L 295.62 139.19 L 302.86 139.19 L 310.10 139.19 L 317.33 136.71 L 324.57 136.35 L 331.81 134.58 L 339.05 133.16 L 346.29 131.39 L 353.52 129.97 L 360.76 125.37 L 368.00 122.53 L 375.24 118.28 L 382.48 117.57 L 389.71 117.22 L 396.95 115.44 L 404.19 113.67 L 411.43 111.90 L 418.67 108.71 L 425.90 106.94 L 433.14 105.87 L 440.38 105.16 L 447.62 104.46 L 454.86 102.33 L 462.10 101.27 L 469.33 101.27 L 476.57 100.20 L 483.81 98.43 L 491.05 89.92 L 498.29 88.86 L 505.52 86.73 L 512.76 84.96 L 520.00 84.61 L 527.24 84.61 L 534.48 84.61 L 541.71 84.61 L 548.95 84.61 L 556.19 84.61 L 563.43 84.61 L 570.67 84.61 L 577.90 84.61 L 585.14 80.35 L 592.38 79.65 L 599.62 78.58 L 606.86 77.52 L 614.10 76.46 L 621.33 73.97 L 628.57 71.49 L 635.81 69.37 L 643.05 68.66 L 650.29 68.30 L 657.52 67.95 L 664.76 67.95 L 672.00 66.53 L 679.24 65.47 L 686.48 65.47 L 693.71 65.47 L 700.95 65.47 L 708.19 65.11 L 715.43 65.11 L 722.67 63.34 L 729.90 63.34 L 737.14 61.22 L 744.38 61.22 L 751.62 61.22 L 758.86 61.22 L 766.10 61.22 L 773.33 61.22 L 780.57 61.22 L 787.81 61.22 L 795.05 61.22 L 802.29 61.22 L 809.52 61.22 L 816.76 60.15 L 824.00 60.15 L 831.24 60.15 L 838.48 59.80 L 845.71 59.44 L 852.95 59.44 L 860.19 59.09 L 867.43 58.38 L 874.67 56.25 L 881.90 56.25 L 889.14 56.25 L 896.38 56.25 L 903.62 56.25 L 910.86 56.25 L 918.10 56.25 L 925.33 55.90 L 932.57 55.90 L 939.81 55.54 L 947.05 53.42 L 954.29 53.42 L 961.52 53.42 L 968.76 52.71 L 976.00 52.00 L 976.00 304 Z" fill="url(#fill-total-trend-slate)"/>
  <polyline class="line" points="64.00,166.84 71.24,166.84 78.48,166.13 85.71,166.13 92.95,166.13 100.19,164.35 107.43,153.01 114.67,153.01 121.90,152.66 129.14,151.59 136.38,151.59 143.62,151.59 150.86,149.82 158.10,149.11 165.33,146.99 172.57,146.28 179.81,145.22 187.05,143.44 194.29,143.09 201.52,143.09 208.76,143.09 216.00,143.09 223.24,142.73 230.48,142.73 237.71,142.03 244.95,139.90 252.19,139.90 259.43,139.90 266.67,139.19 273.90,139.19 281.14,139.19 288.38,139.19 295.62,139.19 302.86,139.19 310.10,139.19 317.33,136.71 324.57,136.35 331.81,134.58 339.05,133.16 346.29,131.39 353.52,129.97 360.76,125.37 368.00,122.53 375.24,118.28 382.48,117.57 389.71,117.22 396.95,115.44 404.19,113.67 411.43,111.90 418.67,108.71 425.90,106.94 433.14,105.87 440.38,105.16 447.62,104.46 454.86,102.33 462.10,101.27 469.33,101.27 476.57,100.20 483.81,98.43 491.05,89.92 498.29,88.86 505.52,86.73 512.76,84.96 520.00,84.61 527.24,84.61 534.48,84.61 541.71,84.61 548.95,84.61 556.19,84.61 563.43,84.61 570.67,84.61 577.90,84.61 585.14,80.35 592.38,79.65 599.62,78.58 606.86,77.52 614.10,76.46 621.33,73.97 628.57,71.49 635.81,69.37 643.05,68.66 650.29,68.30 657.52,67.95 664.76,67.95 672.00,66.53 679.24,65.47 686.48,65.47 693.71,65.47 700.95,65.47 708.19,65.11 715.43,65.11 722.67,63.34 729.90,63.34 737.14,61.22 744.38,61.22 751.62,61.22 758.86,61.22 766.10,61.22 773.33,61.22 780.57,61.22 787.81,61.22 795.05,61.22 802.29,61.22 809.52,61.22 816.76,60.15 824.00,60.15 831.24,60.15 838.48,59.80 845.71,59.44 852.95,59.44 860.19,59.09 867.43,58.38 874.67,56.25 881.90,56.25 889.14,56.25 896.38,56.25 903.62,56.25 910.86,56.25 918.10,56.25 925.33,55.90 932.57,55.90 939.81,55.54 947.05,53.42 954.29,53.42 961.52,53.42 968.76,52.71 976.00,52.00"/>
  <circle class="dot" cx="976.00" cy="52.00" r="4.5"/>
  
  <text class="axis" x="64.00" y="336" text-anchor="start">2026-05-24</text>
  <text class="axis" x="244.95" y="336" text-anchor="middle">2026-06-18</text>
  <text class="axis" x="425.90" y="336" text-anchor="middle">2026-07-13</text>
  <text class="axis" x="606.86" y="336" text-anchor="middle">2026-08-07</text>
  <text class="axis" x="787.81" y="336" text-anchor="middle">2026-09-01</text>
  <text class="axis" x="968.76" y="336" text-anchor="middle">2026-09-26</text>
  <text class="axis" x="976.00" y="336" text-anchor="end">2026-09-27</text>
  <text class="latest" x="976" y="34" text-anchor="end">Latest total: 711</text>
</svg>
