<?xml version="1.0" encoding="UTF-8"?>
<svg xmlns="http://www.w3.org/2000/svg" viewBox="0 0 1000 360" role="img" aria-label="oboroge0/AITuberFlow release downloads chart">
  <defs>
    <linearGradient id="fill-total-trend-slate" x1="0" y1="0" x2="0" y2="1">
      <stop offset="0%" stop-color="#60a5fa" stop-opacity="0.32"/>
      <stop offset="100%" stop-color="#60a5fa" stop-opacity="0.05"/>
    </linearGradient>
    <style>
      .bg { fill: #0f172a; }
      .title { font: 700 24px Arial, sans-serif; fill: #e2e8f0; }
      .sub { font: 400 13px Arial, sans-serif; fill: #94a3b8; }
      .grid { stroke: #1e293b; stroke-width: 1; }
      .axis { font: 400 12px Arial, sans-serif; fill: #94a3b8; }
      .line { fill: none; stroke: #60a5fa; stroke-width: 3; stroke-linecap: round; stroke-linejoin: round; }
      .dot { fill: #60a5fa; }
      .value { font: 600 11px Arial, sans-serif; fill: #cbd5e1; }
      .latest { font: 700 14px Arial, sans-serif; fill: #e2e8f0; }
    </style>
  </defs>
  <rect class="bg" x="0" y="0" width="1000" height="360" rx="16" />
  <text class="title" x="64" y="34">oboroge0/AITuberFlow release downloads</text>
  <text class="sub" x="64" y="352">Generated 2026-06-23</text>
  <line x1="64" y1="52.00" x2="976" y2="52.00" class="grid"/>
  <text x="56" y="56.00" text-anchor="end" class="axis">465</text>
  <line x1="64" y1="94.00" x2="976" y2="94.00" class="grid"/>
  <text x="56" y="98.00" text-anchor="end" class="axis">388</text>
  <line x1="64" y1="136.00" x2="976" y2="136.00" class="grid"/>
  <text x="56" y="140.00" text-anchor="end" class="axis">310</text>
  <line x1="64" y1="178.00" x2="976" y2="178.00" class="grid"/>
  <text x="56" y="182.00" text-anchor="end" class="axis">233</text>
  <line x1="64" y1="220.00" x2="976" y2="220.00" class="grid"/>
  <text x="56" y="224.00" text-anchor="end" class="axis">155</text>
  <line x1="64" y1="262.00" x2="976" y2="262.00" class="grid"/>
  <text x="56" y="266.00" text-anchor="end" class="axis">78</text>
  <line x1="64" y1="304.00" x2="976" y2="304.00" class="grid"/>
  <text x="56" y="308.00" text-anchor="end" class="axis">0</text>
  <path d="M 64.00 304 L 64.00 94.27 L 94.40 94.27 L 124.80 93.19 L 155.20 93.19 L 185.60 93.19 L 216.00 90.48 L 246.40 73.14 L 276.80 73.14 L 307.20 72.59 L 337.60 70.97 L 368.00 70.97 L 398.40 70.97 L 428.80 68.26 L 459.20 67.17 L 489.60 63.92 L 520.00 62.84 L 550.40 61.21 L 580.80 58.50 L 611.20 57.96 L 641.60 57.96 L 672.00 57.96 L 702.40 57.96 L 732.80 57.42 L 763.20 57.42 L 793.60 56.34 L 824.00 53.08 L 854.40 53.08 L 884.80 53.08 L 915.20 52.00 L 945.60 52.00 L 976.00 52.00 L 976.00 304 Z" fill="url(#fill-total-trend-slate)"/>
  <polyline class="line" points="64.00,94.27 94.40,94.27 124.80,93.19 155.20,93.19 185.60,93.19 216.00,90.48 246.40,73.14 276.80,73.14 307.20,72.59 337.60,70.97 368.00,70.97 398.40,70.97 428.80,68.26 459.20,67.17 489.60,63.92 520.00,62.84 550.40,61.21 580.80,58.50 611.20,57.96 641.60,57.96 672.00,57.96 702.40,57.96 732.80,57.42 763.20,57.42 793.60,56.34 824.00,53.08 854.40,53.08 884.80,53.08 915.20,52.00 945.60,52.00 976.00,52.00"/>
  <circle class="dot" cx="976.00" cy="52.00" r="4.5"/>
  
  <text class="axis" x="64.00" y="336" text-anchor="start">2026-05-24</text>
  <text class="axis" x="246.40" y="336" text-anchor="middle">2026-05-30</text>
  <text class="axis" x="428.80" y="336" text-anchor="middle">2026-06-05</text>
  <text class="axis" x="611.20" y="336" text-anchor="middle">2026-06-11</text>
  <text class="axis" x="793.60" y="336" text-anchor="middle">2026-06-17</text>
  <text class="axis" x="976.00" y="336" text-anchor="end">2026-06-23</text>
  <text class="latest" x="976" y="34" text-anchor="end">Latest total: 465</text>
</svg>
