<?xml version="1.0" encoding="UTF-8"?>
<svg xmlns="http://www.w3.org/2000/svg" viewBox="0 0 1000 360" role="img" aria-label="oboroge0/AITuberFlow release downloads chart">
  <defs>
    <linearGradient id="fill-total-trend-slate" x1="0" y1="0" x2="0" y2="1">
      <stop offset="0%" stop-color="#60a5fa" stop-opacity="0.32"/>
      <stop offset="100%" stop-color="#60a5fa" stop-opacity="0.05"/>
    </linearGradient>
    <style>
      .bg { fill: #0f172a; }
      .title { font: 700 24px Arial, sans-serif; fill: #e2e8f0; }
      .sub { font: 400 13px Arial, sans-serif; fill: #94a3b8; }
      .grid { stroke: #1e293b; stroke-width: 1; }
      .axis { font: 400 12px Arial, sans-serif; fill: #94a3b8; }
      .line { fill: none; stroke: #60a5fa; stroke-width: 3; stroke-linecap: round; stroke-linejoin: round; }
      .dot { fill: #60a5fa; }
      .value { font: 600 11px Arial, sans-serif; fill: #cbd5e1; }
      .latest { font: 700 14px Arial, sans-serif; fill: #e2e8f0; }
    </style>
  </defs>
  <rect class="bg" x="0" y="0" width="1000" height="360" rx="16" />
  <text class="title" x="64" y="34">oboroge0/AITuberFlow release downloads</text>
  <text class="sub" x="64" y="352">Generated 2026-08-09</text>
  <line x1="64" y1="52.00" x2="976" y2="52.00" class="grid"/>
  <text x="56" y="56.00" text-anchor="end" class="axis">649</text>
  <line x1="64" y1="94.00" x2="976" y2="94.00" class="grid"/>
  <text x="56" y="98.00" text-anchor="end" class="axis">541</text>
  <line x1="64" y1="136.00" x2="976" y2="136.00" class="grid"/>
  <text x="56" y="140.00" text-anchor="end" class="axis">433</text>
  <line x1="64" y1="178.00" x2="976" y2="178.00" class="grid"/>
  <text x="56" y="182.00" text-anchor="end" class="axis">325</text>
  <line x1="64" y1="220.00" x2="976" y2="220.00" class="grid"/>
  <text x="56" y="224.00" text-anchor="end" class="axis">216</text>
  <line x1="64" y1="262.00" x2="976" y2="262.00" class="grid"/>
  <text x="56" y="266.00" text-anchor="end" class="axis">108</text>
  <line x1="64" y1="304.00" x2="976" y2="304.00" class="grid"/>
  <text x="56" y="308.00" text-anchor="end" class="axis">0</text>
  <path d="M 64.00 304 L 64.00 153.73 L 75.84 153.73 L 87.69 152.96 L 99.53 152.96 L 111.38 152.96 L 123.22 151.01 L 135.06 138.59 L 146.91 138.59 L 158.75 138.20 L 170.60 137.04 L 182.44 137.04 L 194.29 137.04 L 206.13 135.09 L 217.97 134.32 L 229.82 131.99 L 241.66 131.21 L 253.51 130.05 L 265.35 128.10 L 277.19 127.72 L 289.04 127.72 L 300.88 127.72 L 312.73 127.72 L 324.57 127.33 L 336.42 127.33 L 348.26 126.55 L 360.10 124.22 L 371.95 124.22 L 383.79 124.22 L 395.64 123.45 L 407.48 123.45 L 419.32 123.45 L 431.17 123.45 L 443.01 123.45 L 454.86 123.45 L 466.70 123.45 L 478.55 120.73 L 490.39 120.34 L 502.23 118.40 L 514.08 116.84 L 525.92 114.90 L 537.77 113.35 L 549.61 108.30 L 561.45 105.20 L 573.30 100.54 L 585.14 99.76 L 596.99 99.37 L 608.83 97.43 L 620.68 95.49 L 632.52 93.55 L 644.36 90.05 L 656.21 88.11 L 668.05 86.95 L 679.90 86.17 L 691.74 85.39 L 703.58 83.06 L 715.43 81.90 L 727.27 81.90 L 739.12 80.73 L 750.96 78.79 L 762.81 69.47 L 774.65 68.31 L 786.49 65.98 L 798.34 64.04 L 810.18 63.65 L 822.03 63.65 L 833.87 63.65 L 845.71 63.65 L 857.56 63.65 L 869.40 63.65 L 881.25 63.65 L 893.09 63.65 L 904.94 63.65 L 916.78 58.99 L 928.62 58.21 L 940.47 57.05 L 952.31 55.88 L 964.16 54.72 L 976.00 52.00 L 976.00 304 Z" fill="url(#fill-total-trend-slate)"/>
  <polyline class="line" points="64.00,153.73 75.84,153.73 87.69,152.96 99.53,152.96 111.38,152.96 123.22,151.01 135.06,138.59 146.91,138.59 158.75,138.20 170.60,137.04 182.44,137.04 194.29,137.04 206.13,135.09 217.97,134.32 229.82,131.99 241.66,131.21 253.51,130.05 265.35,128.10 277.19,127.72 289.04,127.72 300.88,127.72 312.73,127.72 324.57,127.33 336.42,127.33 348.26,126.55 360.10,124.22 371.95,124.22 383.79,124.22 395.64,123.45 407.48,123.45 419.32,123.45 431.17,123.45 443.01,123.45 454.86,123.45 466.70,123.45 478.55,120.73 490.39,120.34 502.23,118.40 514.08,116.84 525.92,114.90 537.77,113.35 549.61,108.30 561.45,105.20 573.30,100.54 585.14,99.76 596.99,99.37 608.83,97.43 620.68,95.49 632.52,93.55 644.36,90.05 656.21,88.11 668.05,86.95 679.90,86.17 691.74,85.39 703.58,83.06 715.43,81.90 727.27,81.90 739.12,80.73 750.96,78.79 762.81,69.47 774.65,68.31 786.49,65.98 798.34,64.04 810.18,63.65 822.03,63.65 833.87,63.65 845.71,63.65 857.56,63.65 869.40,63.65 881.25,63.65 893.09,63.65 904.94,63.65 916.78,58.99 928.62,58.21 940.47,57.05 952.31,55.88 964.16,54.72 976.00,52.00"/>
  <circle class="dot" cx="976.00" cy="52.00" r="4.5"/>
  
  <text class="axis" x="64.00" y="336" text-anchor="start">2026-05-24</text>
  <text class="axis" x="241.66" y="336" text-anchor="middle">2026-06-08</text>
  <text class="axis" x="419.32" y="336" text-anchor="middle">2026-06-23</text>
  <text class="axis" x="596.99" y="336" text-anchor="middle">2026-07-08</text>
  <text class="axis" x="774.65" y="336" text-anchor="middle">2026-07-23</text>
  <text class="axis" x="952.31" y="336" text-anchor="middle">2026-08-07</text>
  <text class="axis" x="976.00" y="336" text-anchor="end">2026-08-09</text>
  <text class="latest" x="976" y="34" text-anchor="end">Latest total: 649</text>
</svg>
