<?xml version="1.0" encoding="UTF-8"?>
<svg xmlns="http://www.w3.org/2000/svg" viewBox="0 0 1000 360" role="img" aria-label="oboroge0/AITuberFlow release downloads chart">
  <defs>
    <linearGradient id="fill-total-trend-slate" x1="0" y1="0" x2="0" y2="1">
      <stop offset="0%" stop-color="#60a5fa" stop-opacity="0.32"/>
      <stop offset="100%" stop-color="#60a5fa" stop-opacity="0.05"/>
    </linearGradient>
    <style>
      .bg { fill: #0f172a; }
      .title { font: 700 24px Arial, sans-serif; fill: #e2e8f0; }
      .sub { font: 400 13px Arial, sans-serif; fill: #94a3b8; }
      .grid { stroke: #1e293b; stroke-width: 1; }
      .axis { font: 400 12px Arial, sans-serif; fill: #94a3b8; }
      .line { fill: none; stroke: #60a5fa; stroke-width: 3; stroke-linecap: round; stroke-linejoin: round; }
      .dot { fill: #60a5fa; }
      .value { font: 600 11px Arial, sans-serif; fill: #cbd5e1; }
      .latest { font: 700 14px Arial, sans-serif; fill: #e2e8f0; }
    </style>
  </defs>
  <rect class="bg" x="0" y="0" width="1000" height="360" rx="16" />
  <text class="title" x="64" y="34">oboroge0/AITuberFlow release downloads</text>
  <text class="sub" x="64" y="352">Generated 2026-07-07</text>
  <line x1="64" y1="52.00" x2="976" y2="52.00" class="grid"/>
  <text x="56" y="56.00" text-anchor="end" class="axis">526</text>
  <line x1="64" y1="94.00" x2="976" y2="94.00" class="grid"/>
  <text x="56" y="98.00" text-anchor="end" class="axis">438</text>
  <line x1="64" y1="136.00" x2="976" y2="136.00" class="grid"/>
  <text x="56" y="140.00" text-anchor="end" class="axis">351</text>
  <line x1="64" y1="178.00" x2="976" y2="178.00" class="grid"/>
  <text x="56" y="182.00" text-anchor="end" class="axis">263</text>
  <line x1="64" y1="220.00" x2="976" y2="220.00" class="grid"/>
  <text x="56" y="224.00" text-anchor="end" class="axis">175</text>
  <line x1="64" y1="262.00" x2="976" y2="262.00" class="grid"/>
  <text x="56" y="266.00" text-anchor="end" class="axis">88</text>
  <line x1="64" y1="304.00" x2="976" y2="304.00" class="grid"/>
  <text x="56" y="308.00" text-anchor="end" class="axis">0</text>
  <path d="M 64.00 304 L 64.00 118.59 L 84.73 118.59 L 105.45 117.63 L 126.18 117.63 L 146.91 117.63 L 167.64 115.24 L 188.36 99.91 L 209.09 99.91 L 229.82 99.43 L 250.55 97.99 L 271.27 97.99 L 292.00 97.99 L 312.73 95.60 L 333.45 94.64 L 354.18 91.76 L 374.91 90.81 L 395.64 89.37 L 416.36 86.97 L 437.09 86.49 L 457.82 86.49 L 478.55 86.49 L 499.27 86.49 L 520.00 86.02 L 540.73 86.02 L 561.45 85.06 L 582.18 82.18 L 602.91 82.18 L 623.64 82.18 L 644.36 81.22 L 665.09 81.22 L 685.82 81.22 L 706.55 81.22 L 727.27 81.22 L 748.00 81.22 L 768.73 81.22 L 789.45 77.87 L 810.18 77.39 L 830.91 75.00 L 851.64 73.08 L 872.36 70.68 L 893.09 68.77 L 913.82 62.54 L 934.55 58.71 L 955.27 52.96 L 976.00 52.00 L 976.00 304 Z" fill="url(#fill-total-trend-slate)"/>
  <polyline class="line" points="64.00,118.59 84.73,118.59 105.45,117.63 126.18,117.63 146.91,117.63 167.64,115.24 188.36,99.91 209.09,99.91 229.82,99.43 250.55,97.99 271.27,97.99 292.00,97.99 312.73,95.60 333.45,94.64 354.18,91.76 374.91,90.81 395.64,89.37 416.36,86.97 437.09,86.49 457.82,86.49 478.55,86.49 499.27,86.49 520.00,86.02 540.73,86.02 561.45,85.06 582.18,82.18 602.91,82.18 623.64,82.18 644.36,81.22 665.09,81.22 685.82,81.22 706.55,81.22 727.27,81.22 748.00,81.22 768.73,81.22 789.45,77.87 810.18,77.39 830.91,75.00 851.64,73.08 872.36,70.68 893.09,68.77 913.82,62.54 934.55,58.71 955.27,52.96 976.00,52.00"/>
  <circle class="dot" cx="976.00" cy="52.00" r="4.5"/>
  
  <text class="axis" x="64.00" y="336" text-anchor="start">2026-05-24</text>
  <text class="axis" x="229.82" y="336" text-anchor="middle">2026-06-01</text>
  <text class="axis" x="395.64" y="336" text-anchor="middle">2026-06-09</text>
  <text class="axis" x="561.45" y="336" text-anchor="middle">2026-06-17</text>
  <text class="axis" x="727.27" y="336" text-anchor="middle">2026-06-25</text>
  <text class="axis" x="893.09" y="336" text-anchor="middle">2026-07-03</text>
  <text class="axis" x="976.00" y="336" text-anchor="end">2026-07-07</text>
  <text class="latest" x="976" y="34" text-anchor="end">Latest total: 526</text>
</svg>
