<?xml version="1.0" encoding="UTF-8"?>
<svg xmlns="http://www.w3.org/2000/svg" viewBox="0 0 1000 360" role="img" aria-label="oboroge0/AITuberFlow release downloads chart">
  <defs>
    <linearGradient id="fill-total-trend-slate" x1="0" y1="0" x2="0" y2="1">
      <stop offset="0%" stop-color="#60a5fa" stop-opacity="0.32"/>
      <stop offset="100%" stop-color="#60a5fa" stop-opacity="0.05"/>
    </linearGradient>
    <style>
      .bg { fill: #0f172a; }
      .title { font: 700 24px Arial, sans-serif; fill: #e2e8f0; }
      .sub { font: 400 13px Arial, sans-serif; fill: #94a3b8; }
      .grid { stroke: #1e293b; stroke-width: 1; }
      .axis { font: 400 12px Arial, sans-serif; fill: #94a3b8; }
      .line { fill: none; stroke: #60a5fa; stroke-width: 3; stroke-linecap: round; stroke-linejoin: round; }
      .dot { fill: #60a5fa; }
      .value { font: 600 11px Arial, sans-serif; fill: #cbd5e1; }
      .latest { font: 700 14px Arial, sans-serif; fill: #e2e8f0; }
    </style>
  </defs>
  <rect class="bg" x="0" y="0" width="1000" height="360" rx="16" />
  <text class="title" x="64" y="34">oboroge0/AITuberFlow release downloads</text>
  <text class="sub" x="64" y="352">Generated 2026-06-30</text>
  <line x1="64" y1="52.00" x2="976" y2="52.00" class="grid"/>
  <text x="56" y="56.00" text-anchor="end" class="axis">478</text>
  <line x1="64" y1="94.00" x2="976" y2="94.00" class="grid"/>
  <text x="56" y="98.00" text-anchor="end" class="axis">398</text>
  <line x1="64" y1="136.00" x2="976" y2="136.00" class="grid"/>
  <text x="56" y="140.00" text-anchor="end" class="axis">319</text>
  <line x1="64" y1="178.00" x2="976" y2="178.00" class="grid"/>
  <text x="56" y="182.00" text-anchor="end" class="axis">239</text>
  <line x1="64" y1="220.00" x2="976" y2="220.00" class="grid"/>
  <text x="56" y="224.00" text-anchor="end" class="axis">159</text>
  <line x1="64" y1="262.00" x2="976" y2="262.00" class="grid"/>
  <text x="56" y="266.00" text-anchor="end" class="axis">80</text>
  <line x1="64" y1="304.00" x2="976" y2="304.00" class="grid"/>
  <text x="56" y="308.00" text-anchor="end" class="axis">0</text>
  <path d="M 64.00 304 L 64.00 99.97 L 88.65 99.97 L 113.30 98.92 L 137.95 98.92 L 162.59 98.92 L 187.24 96.28 L 211.89 79.41 L 236.54 79.41 L 261.19 78.89 L 285.84 77.31 L 310.49 77.31 L 335.14 77.31 L 359.78 74.67 L 384.43 73.62 L 409.08 70.45 L 433.73 69.40 L 458.38 67.82 L 483.03 65.18 L 507.68 64.65 L 532.32 64.65 L 556.97 64.65 L 581.62 64.65 L 606.27 64.13 L 630.92 64.13 L 655.57 63.07 L 680.22 59.91 L 704.86 59.91 L 729.51 59.91 L 754.16 58.85 L 778.81 58.85 L 803.46 58.85 L 828.11 58.85 L 852.76 58.85 L 877.41 58.85 L 902.05 58.85 L 926.70 55.16 L 951.35 54.64 L 976.00 52.00 L 976.00 304 Z" fill="url(#fill-total-trend-slate)"/>
  <polyline class="line" points="64.00,99.97 88.65,99.97 113.30,98.92 137.95,98.92 162.59,98.92 187.24,96.28 211.89,79.41 236.54,79.41 261.19,78.89 285.84,77.31 310.49,77.31 335.14,77.31 359.78,74.67 384.43,73.62 409.08,70.45 433.73,69.40 458.38,67.82 483.03,65.18 507.68,64.65 532.32,64.65 556.97,64.65 581.62,64.65 606.27,64.13 630.92,64.13 655.57,63.07 680.22,59.91 704.86,59.91 729.51,59.91 754.16,58.85 778.81,58.85 803.46,58.85 828.11,58.85 852.76,58.85 877.41,58.85 902.05,58.85 926.70,55.16 951.35,54.64 976.00,52.00"/>
  <circle class="dot" cx="976.00" cy="52.00" r="4.5"/>
  
  <text class="axis" x="64.00" y="336" text-anchor="start">2026-05-24</text>
  <text class="axis" x="236.54" y="336" text-anchor="middle">2026-05-31</text>
  <text class="axis" x="409.08" y="336" text-anchor="middle">2026-06-07</text>
  <text class="axis" x="581.62" y="336" text-anchor="middle">2026-06-14</text>
  <text class="axis" x="754.16" y="336" text-anchor="middle">2026-06-21</text>
  <text class="axis" x="926.70" y="336" text-anchor="middle">2026-06-28</text>
  <text class="axis" x="976.00" y="336" text-anchor="end">2026-06-30</text>
  <text class="latest" x="976" y="34" text-anchor="end">Latest total: 478</text>
</svg>
